General
Complete name                    : The.Karate.Kid.2010.avi
Format                           : AVI
File size                        : 909 MiB
Duration                         : 2h 7mn
Overall bit rate                 : 999 Kbps

Video

Format                           : MPEG-4 Visual
Codec ID/Hint                    : XviD
Duration                         : 2h 7mn
Bit rate                         : 874 Kbps
Width                            : 720 pixels
Height                           : 456 pixels
Display aspect ratio             : 2.25:1
Stream size                      : 795 MiB (87%)
Writing library                  : XviD 1.1.2 (UTC 2006-11-01)

Audio

Format                           : MPEG Audio
Codec ID/Hint                    : MP3
Duration                         : 2h 7mn
Bit rate                         : 112 Kbps
Channel(s)                       : 2 channels
Sampling rate                    : 48.0 KHz
Stream size                      : 102 MiB (11%)
Writing library                  : LAME3.98

Text #1
Language                         : Danish

Text #2
Language                         : Swedish

Text #3
Language                         : Norwegian

Text #4
Language                         : Finnish
